<?xml version="1.0" encoding="UTF-8" standalone="no"?>
<svg
   xmlns:dc="http://purl.org/dc/elements/1.1/"
   xmlns:cc="http://creativecommons.org/ns#"
   xmlns:rdf="http://www.w3.org/1999/02/22-rdf-syntax-ns#"
   xmlns:svg="http://www.w3.org/2000/svg"
   xmlns="http://www.w3.org/2000/svg"
   xmlns:sodipodi="http://sodipodi.sourceforge.net/DTD/sodipodi-0.dtd"
   xmlns:inkscape="http://www.inkscape.org/namespaces/inkscape"
   height="400px"
   version="1.1"
   width="400px"
   id="svg2"
   inkscape:version="0.91 r13725"
   sodipodi:docname="logo_pixels.svg">
  <metadata
     id="metadata208">
    <rdf:RDF>
      <cc:Work
         rdf:about="">
        <dc:format>image/svg+xml</dc:format>
        <dc:type
           rdf:resource="http://purl.org/dc/dcmitype/StillImage" />
      </cc:Work>
    </rdf:RDF>
  </metadata>
  <sodipodi:namedview
     pagecolor="#ffffff"
     bordercolor="#666666"
     borderopacity="1"
     objecttolerance="10"
     gridtolerance="10"
     guidetolerance="10"
     inkscape:pageopacity="0"
     inkscape:pageshadow="2"
     inkscape:window-width="1301"
     inkscape:window-height="744"
     id="namedview206"
     showgrid="false"
     inkscape:zoom="1.18"
     inkscape:cx="207.9848"
     inkscape:cy="199.02379"
     inkscape:window-x="65"
     inkscape:window-y="24"
     inkscape:window-maximized="1"
     inkscape:current-layer="svg2" />
  <defs
     id="defs4" />
  <rect
     fill="rgb(243,41,85)"
     height="41px"
     width="41px"
     x="0px"
     y="0px"
     id="rect6" />
  <rect
     fill="rgb(47,101,149)"
     height="41px"
     width="41px"
     x="40px"
     y="0px"
     id="rect8" />
  <rect
     fill="rgb(235,66,69)"
     height="41px"
     width="41px"
     x="80px"
     y="0px"
     id="rect10" />
  <rect
     fill="rgb(238,70,98)"
     height="41px"
     width="41px"
     x="120px"
     y="0px"
     id="rect12" />
  <rect
     fill="rgb(245,92,75)"
     height="41px"
     width="41px"
     x="160px"
     y="0px"
     id="rect14" />
  <rect
     fill="rgb(249,68,71)"
     height="41px"
     width="41px"
     x="200px"
     y="0px"
     id="rect16" />
  <rect
     fill="rgb(52,154,201)"
     height="41px"
     width="41px"
     x="240px"
     y="0px"
     id="rect18" />
  <rect
     fill="rgb(241,115,65)"
     height="41px"
     width="41px"
     x="280px"
     y="0px"
     id="rect20" />
  <rect
     fill="rgb(53,153,225)"
     height="41px"
     width="41px"
     x="320px"
     y="0px"
     id="rect22" />
  <rect
     fill="rgb(244,137,71)"
     height="41px"
     width="41px"
     x="360px"
     y="0px"
     id="rect24"
     style="fill:#f38630;fill-opacity:1" />
  <rect
     fill="rgb(244,55,70)"
     height="41px"
     width="41px"
     x="0px"
     y="40px"
     id="rect26" />
  <rect
     fill="rgb(44,99,133)"
     height="41px"
     width="41px"
     x="40px"
     y="40px"
     id="rect28" />
  <rect
     fill="rgb(238,79,95)"
     height="41px"
     width="41px"
     x="80px"
     y="40px"
     id="rect30" />
  <rect
     fill="rgb(46,130,163)"
     height="41px"
     width="41px"
     x="120px"
     y="40px"
     id="rect32" />
  <rect
     fill="rgb(51,139,164)"
     height="41px"
     width="41px"
     x="160px"
     y="40px"
     id="rect34" />
  <rect
     fill="rgb(47,131,173)"
     height="41px"
     width="41px"
     x="200px"
     y="40px"
     id="rect36" />
  <rect
     fill="rgb(47,148,191)"
     height="41px"
     width="41px"
     x="240px"
     y="40px"
     id="rect38" />
  <rect
     fill="rgb(249,125,62)"
     height="41px"
     width="41px"
     x="280px"
     y="40px"
     id="rect40" />
  <rect
     fill="rgb(51,147,211)"
     height="41px"
     width="41px"
     x="320px"
     y="40px"
     id="rect42" />
  <rect
     fill="rgb(243,153,70)"
     height="41px"
     width="41px"
     x="360px"
     y="40px"
     id="rect44" />
  <rect
     fill="rgb(243,64,94)"
     height="41px"
     width="41px"
     x="0px"
     y="80px"
     id="rect46" />
  <rect
     fill="rgb(52,106,127)"
     height="41px"
     width="41px"
     x="40px"
     y="80px"
     id="rect48" />
  <rect
     fill="rgb(239,71,66)"
     height="41px"
     width="41px"
     x="80px"
     y="80px"
     id="rect50" />
  <rect
     fill="rgb(47,119,152)"
     height="41px"
     width="41px"
     x="120px"
     y="80px"
     id="rect52" />
  <rect
     fill="rgb(239,78,75)"
     height="41px"
     width="41px"
     x="160px"
     y="80px"
     id="rect54" />
  <rect
     fill="rgb(240,108,75)"
     height="41px"
     width="41px"
     x="200px"
     y="80px"
     id="rect56" />
  <rect
     fill="rgb(48,133,176)"
     height="41px"
     width="41px"
     x="240px"
     y="80px"
     id="rect58" />
  <rect
     fill="rgb(241,116,67)"
     height="41px"
     width="41px"
     x="280px"
     y="80px"
     id="rect60" />
  <rect
     fill="rgb(49,145,210)"
     height="41px"
     width="41px"
     x="320px"
     y="80px"
     id="rect62" />
  <rect
     fill="rgb(241,142,61)"
     height="41px"
     width="41px"
     x="360px"
     y="80px"
     id="rect64" />
  <rect
     fill="rgb(239,77,68)"
     height="41px"
     width="41px"
     x="0px"
     y="120px"
     id="rect66" />
  <rect
     fill="rgb(49,95,110)"
     height="41px"
     width="41px"
     x="40px"
     y="120px"
     id="rect68" />
  <rect
     fill="rgb(243,85,68)"
     height="41px"
     width="41px"
     x="80px"
     y="120px"
     id="rect70" />
  <rect
     fill="rgb(48,107,128)"
     height="41px"
     width="41px"
     x="120px"
     y="120px"
     id="rect72" />
  <rect
     fill="rgb(56,126,151)"
     height="41px"
     width="41px"
     x="160px"
     y="120px"
     id="rect74" />
  <rect
     fill="rgb(245,119,69)"
     height="41px"
     width="41px"
     x="200px"
     y="120px"
     id="rect76" />
  <rect
     fill="rgb(48,131,167)"
     height="41px"
     width="41px"
     x="240px"
     y="120px"
     id="rect78" />
  <rect
     fill="rgb(252,127,64)"
     height="41px"
     width="41px"
     x="280px"
     y="120px"
     id="rect80" />
  <rect
     fill="rgb(46,142,194)"
     height="41px"
     width="41px"
     x="320px"
     y="120px"
     id="rect82" />
  <rect
     fill="rgb(246,159,66)"
     height="41px"
     width="41px"
     x="360px"
     y="120px"
     id="rect84" />
  <rect
     fill="rgb(242,76,76)"
     height="41px"
     width="41px"
     x="0px"
     y="160px"
     id="rect86" />
  <rect
     fill="rgb(52,85,103)"
     height="41px"
     width="41px"
     x="40px"
     y="160px"
     id="rect88" />
  <rect
     fill="rgb(251,94,74)"
     height="41px"
     width="41px"
     x="80px"
     y="160px"
     id="rect90" />
  <rect
     fill="rgb(46,93,125)"
     height="41px"
     width="41px"
     x="120px"
     y="160px"
     id="rect92" />
  <rect
     fill="rgb(46,116,136)"
     height="41px"
     width="41px"
     x="160px"
     y="160px"
     id="rect94" />
  <rect
     fill="rgb(240,142,61)"
     height="41px"
     width="41px"
     x="200px"
     y="160px"
     id="rect96" />
  <rect
     fill="rgb(48,128,155)"
     height="41px"
     width="41px"
     x="240px"
     y="160px"
     id="rect98" />
  <rect
     fill="rgb(247,164,69)"
     height="41px"
     width="41px"
     x="280px"
     y="160px"
     id="rect100" />
  <rect
     fill="rgb(48,131,176)"
     height="41px"
     width="41px"
     x="320px"
     y="160px"
     id="rect102" />
  <rect
     fill="rgb(242,148,54)"
     height="41px"
     width="41px"
     x="360px"
     y="160px"
     id="rect104" />
  <rect
     fill="rgb(242,77,74)"
     height="41px"
     width="41px"
     x="0px"
     y="200px"
     id="rect106" />
  <rect
     fill="rgb(48,85,95)"
     height="41px"
     width="41px"
     x="40px"
     y="200px"
     id="rect108" />
  <rect
     fill="rgb(244,89,69)"
     height="41px"
     width="41px"
     x="80px"
     y="200px"
     id="rect110" />
  <rect
     fill="rgb(53,96,113)"
     height="41px"
     width="41px"
     x="120px"
     y="200px"
     id="rect112" />
  <rect
     fill="rgb(48,96,122)"
     height="41px"
     width="41px"
     x="160px"
     y="200px"
     id="rect114" />
  <rect
     fill="rgb(245,123,70)"
     height="41px"
     width="41px"
     x="200px"
     y="200px"
     id="rect116" />
  <rect
     fill="rgb(47,127,154)"
     height="41px"
     width="41px"
     x="240px"
     y="200px"
     id="rect118" />
  <rect
     fill="rgb(246,167,64)"
     height="41px"
     width="41px"
     x="280px"
     y="200px"
     id="rect120" />
  <rect
     fill="rgb(50,116,171)"
     height="41px"
     width="41px"
     x="320px"
     y="200px"
     id="rect122" />
  <rect
     fill="rgb(240,151,50)"
     height="41px"
     width="41px"
     x="360px"
     y="200px"
     id="rect124" />
  <rect
     fill="rgb(245,93,73)"
     height="41px"
     width="41px"
     x="0px"
     y="240px"
     id="rect126" />
  <rect
     fill="rgb(53,78,86)"
     height="41px"
     width="41px"
     x="40px"
     y="240px"
     id="rect128" />
  <rect
     fill="rgb(243,120,71)"
     height="41px"
     width="41px"
     x="80px"
     y="240px"
     id="rect130" />
  <rect
     fill="rgb(52,91,106)"
     height="41px"
     width="41px"
     x="120px"
     y="240px"
     id="rect132" />
  <rect
     fill="rgb(51,95,114)"
     height="41px"
     width="41px"
     x="160px"
     y="240px"
     id="rect134" />
  <rect
     fill="rgb(241,148,61)"
     height="41px"
     width="41px"
     x="200px"
     y="240px"
     id="rect136" />
  <rect
     fill="rgb(48,110,129)"
     height="41px"
     width="41px"
     x="240px"
     y="240px"
     id="rect138" />
  <rect
     fill="rgb(250,176,65)"
     height="41px"
     width="41px"
     x="280px"
     y="240px"
     id="rect140" />
  <rect
     fill="rgb(47,117,158)"
     height="41px"
     width="41px"
     x="320px"
     y="240px"
     id="rect142" />
  <rect
     fill="rgb(246,199,59)"
     height="41px"
     width="41px"
     x="360px"
     y="240px"
     id="rect144" />
  <rect
     fill="rgb(248,135,65)"
     height="41px"
     width="41px"
     x="0px"
     y="280px"
     id="rect146" />
  <rect
     fill="rgb(51,68,75)"
     height="41px"
     width="41px"
     x="40px"
     y="280px"
     id="rect148" />
  <rect
     fill="rgb(242,136,61)"
     height="41px"
     width="41px"
     x="80px"
     y="280px"
     id="rect150" />
  <rect
     fill="rgb(241,127,70)"
     height="41px"
     width="41px"
     x="120px"
     y="280px"
     id="rect152" />
  <rect
     fill="rgb(241,153,60)"
     height="41px"
     width="41px"
     x="160px"
     y="280px"
     id="rect154" />
  <rect
     fill="rgb(238,146,65)"
     height="41px"
     width="41px"
     x="200px"
     y="280px"
     id="rect156" />
  <rect
     fill="rgb(54,107,134)"
     height="41px"
     width="41px"
     x="240px"
     y="280px"
     id="rect158" />
  <rect
     fill="rgb(240,184,54)"
     height="41px"
     width="41px"
     x="280px"
     y="280px"
     id="rect160" />
  <rect
     fill="rgb(46,116,148)"
     height="41px"
     width="41px"
     x="320px"
     y="280px"
     id="rect162" />
  <rect
     fill="rgb(245,185,55)"
     height="41px"
     width="41px"
     x="360px"
     y="280px"
     id="rect164" />
  <rect
     fill="rgb(244,132,67)"
     height="41px"
     width="41px"
     x="0px"
     y="320px"
     id="rect166" />
  <rect
     fill="rgb(47,53,56)"
     height="41px"
     width="41px"
     x="40px"
     y="320px"
     id="rect168" />
  <rect
     fill="rgb(45,55,64)"
     height="41px"
     width="41px"
     x="80px"
     y="320px"
     id="rect170" />
  <rect
     fill="rgb(54,78,87)"
     height="41px"
     width="41px"
     x="120px"
     y="320px"
     id="rect172" />
  <rect
     fill="rgb(51,76,93)"
     height="41px"
     width="41px"
     x="160px"
     y="320px"
     id="rect174" />
  <rect
     fill="rgb(50,87,107)"
     height="41px"
     width="41px"
     x="200px"
     y="320px"
     id="rect176" />
  <rect
     fill="rgb(51,95,115)"
     height="41px"
     width="41px"
     x="240px"
     y="320px"
     id="rect178" />
  <rect
     fill="rgb(245,203,51)"
     height="41px"
     width="41px"
     x="280px"
     y="320px"
     id="rect180" />
  <rect
     fill="rgb(52,115,138)"
     height="41px"
     width="41px"
     x="320px"
     y="320px"
     id="rect182" />
  <rect
     fill="rgb(246,212,61)"
     height="41px"
     width="41px"
     x="360px"
     y="320px"
     id="rect184" />
  <rect
     fill="rgb(235,131,56)"
     height="41px"
     width="41px"
     x="0px"
     y="360px"
     id="rect186"
     style="fill:#f38630;fill-opacity:1" />
  <rect
     fill="rgb(239,125,67)"
     height="41px"
     width="41px"
     x="40px"
     y="360px"
     id="rect188" />
  <rect
     fill="rgb(247,175,68)"
     height="41px"
     width="41px"
     x="80px"
     y="360px"
     id="rect190" />
  <rect
     fill="rgb(243,140,66)"
     height="41px"
     width="41px"
     x="120px"
     y="360px"
     id="rect192" />
  <rect
     fill="rgb(246,179,65)"
     height="41px"
     width="41px"
     x="160px"
     y="360px"
     id="rect194" />
  <rect
     fill="rgb(252,163,60)"
     height="41px"
     width="41px"
     x="200px"
     y="360px"
     id="rect196" />
  <rect
     fill="rgb(241,177,58)"
     height="41px"
     width="41px"
     x="240px"
     y="360px"
     id="rect198" />
  <rect
     fill="rgb(246,194,52)"
     height="41px"
     width="41px"
     x="280px"
     y="360px"
     id="rect200" />
  <rect
     fill="rgb(239,194,57)"
     height="41px"
     width="41px"
     x="320px"
     y="360px"
     id="rect202" />
  <rect
     fill="rgb(248,210,56)"
     height="41px"
     width="41px"
     x="360px"
     y="360px"
     id="rect204" />
</svg>
