<svg xmlns="http://www.w3.org/2000/svg" viewBox="0 -0.5 10 10" shape-rendering="crispEdges">
<metadata>Made with Pixels to Svg https://codepen.io/shshaw/pen/XbxvNj</metadata>
<path stroke="#f33650" d="M0 0h1" />
<path stroke="#f33f4e" d="M1 0h1" />
<path stroke="#f34a4c" d="M2 0h1" />
<path stroke="#f3534b" d="M3 0h1" />
<path stroke="#3191bb" d="M4 0h1" />
<path stroke="#f36347" d="M5 0h1M2 3h1" />
<path stroke="#319fd1" d="M6 0h1" />
<path stroke="#f37643" d="M7 0h1M3 4h1" />
<path stroke="#31abe1" d="M8 0h1" />
<path stroke="#f38641" d="M9 0h1" />
<path stroke="#f3404e" d="M0 1h1" />
<path stroke="#327491" d="M1 1h1" />
<path stroke="#317b9c" d="M2 1h1M4 3h1M5 4h1" />
<path stroke="#f35949" d="M3 1h1" />
<path stroke="#3189b1" d="M4 1h1M7 4h1M8 5h1" />
<path stroke="#f36c45" d="M5 1h1M0 6h1" />
<path stroke="#3098c6" d="M6 1h1" />
<path stroke="#f38042" d="M7 1h1M5 3h1" />
<path stroke="#31a7da" d="M8 1h1" />
<path stroke="#f38f3f" d="M9 1h1M7 3h1" />
<path stroke="#f3494c" d="M0 2h1" />
<path stroke="#326d87" d="M1 2h1" />
<path stroke="#327492" d="M2 2h1" />
<path stroke="#327b9c" d="M3 2h1" />
<path stroke="#3183a6" d="M4 2h1" />
<path stroke="#f37644" d="M5 2h1M0 7h1" />
<path stroke="#3090bc" d="M6 2h1" />
<path stroke="#f38940" d="M7 2h1" />
<path stroke="#319fd0" d="M8 2h1" />
<path stroke="#f3993e" d="M9 2h1M2 9h1" />
<path stroke="#f3534a" d="M0 3h1" />
<path stroke="#316880" d="M1 3h1" />
<path stroke="#f36d45" d="M3 3h1" />
<path stroke="#f38941" d="M6 3h1M3 6h1" />
<path stroke="#f3993d" d="M8 3h1M5 6h1M3 8h1" />
<path stroke="#f3a23c" d="M9 3h1" />
<path stroke="#f35c49" d="M0 4h1" />
<path stroke="#326075" d="M1 4h1M4 7h1" />
<path stroke="#326880" d="M2 4h1" />
<path stroke="#327391" d="M4 4h1" />
<path stroke="#3283a6" d="M6 4h1M7 5h1M8 6h1" />
<path stroke="#3190bb" d="M8 4h1" />
<path stroke="#3097c6" d="M9 4h1" />
<path stroke="#f36348" d="M0 5h1" />
<path stroke="#32596b" d="M1 5h1M4 8h1" />
<path stroke="#326176" d="M2 5h1" />
<path stroke="#f37f42" d="M3 5h1M0 8h1" />
<path stroke="#316f8a" d="M4 5h1M7 8h1" />
<path stroke="#f3903f" d="M5 5h1" />
<path stroke="#317b9b" d="M6 5h1M7 6h1" />
<path stroke="#f3b638" d="M9 5h1" />
<path stroke="#335260" d="M1 6h1" />
<path stroke="#325a6b" d="M2 6h1" />
<path stroke="#32687f" d="M4 6h1" />
<path stroke="#327392" d="M6 6h1" />
<path stroke="#f3bc37" d="M9 6h1" />
<path stroke="#334b56" d="M1 7h1M2 8h1" />
<path stroke="#325261" d="M2 7h1" />
<path stroke="#f3923e" d="M3 7h1" />
<path stroke="#f3a33b" d="M5 7h1" />
<path stroke="#f3ac39" d="M6 7h1" />
<path stroke="#f3b538" d="M7 7h1" />
<path stroke="#f3bf36" d="M8 7h1" />
<path stroke="#f3c635" d="M9 7h1" />
<path stroke="#33444b" d="M1 8h1" />
<path stroke="#f3ac3a" d="M5 8h1" />
<path stroke="#316780" d="M6 8h1" />
<path stroke="#327695" d="M8 8h1" />
<path stroke="#f3cf33" d="M9 8h1" />
<path stroke="#f38a40" d="M0 9h1" />
<path stroke="#f3933f" d="M1 9h1" />
<path stroke="#f3a33c" d="M3 9h1" />
<path stroke="#325260" d="M4 9h1" />
<path stroke="#f3b637" d="M5 9h1" />
<path stroke="#326175" d="M6 9h1" />
<path stroke="#31687f" d="M7 9h1" />
<path stroke="#326f8a" d="M8 9h1" />
<path stroke="#f3d931" d="M9 9h1" />
</svg>