<svg xmlns="http://www.w3.org/2000/svg" baseProfile="full" height="800" version="1.1" width="800"><rect fill="rgb(243,48,81)" height="41" opacity="1" width="41" x="0" y="0"/><rect fill="rgb(243,134,48)" height="41" opacity="0.99" width="41" x="40" y="0"/><rect fill="rgb(48,183,243)" height="41" opacity="0.98" width="41" x="80" y="0"/><rect fill="rgb(243,134,48)" height="41" opacity="0.97" width="41" x="120" y="0"/><rect fill="rgb(99,243,48)" height="41" opacity="0.96" width="41" x="160" y="0"/><rect fill="rgb(99,243,48)" height="41" opacity="0.93" width="41" x="200" y="0"/><rect fill="rgb(243,134,48)" height="41" opacity="0.91" width="41" x="240" y="0"/><rect fill="rgb(243,48,81)" height="41" opacity="0.87" width="41" x="280" y="0"/><rect fill="rgb(99,243,48)" height="41" opacity="0.82" width="41" x="320" y="0"/><rect fill="rgb(48,183,243)" height="41" opacity="0.77" width="41" x="360" y="0"/><rect fill="rgb(243,48,81)" height="41" opacity="0.71" width="41" x="400" y="0"/><rect fill="rgb(243,223,48)" height="41" opacity="0.65" width="41" x="440" y="0"/><rect fill="rgb(48,183,243)" height="41" opacity="0.58" width="41" x="480" y="0"/><rect fill="rgb(243,48,81)" height="41" opacity="0.5" width="41" x="520" y="0"/><rect fill="rgb(48,183,243)" height="41" opacity="0.41" width="41" x="560" y="0"/><rect fill="rgb(243,48,81)" height="41" opacity="0.33" width="41" x="600" y="0"/><rect fill="rgb(243,134,48)" height="41" opacity="0.25" width="41" x="640" y="0"/><rect fill="rgb(243,134,48)" height="41" opacity="0.18" width="41" x="680" y="0"/><rect fill="rgb(243,134,48)" height="41" opacity="0.13" width="41" x="720" y="0"/><rect fill="rgb(243,48,81)" height="41" opacity="0.08" width="41" x="760" y="0"/><rect fill="rgb(48,183,243)" height="41" opacity="0.99" width="41" x="0" y="40"/><rect fill="rgb(243,134,48)" height="41" opacity="0.98" width="41" x="40" y="40"/><rect fill="rgb(243,134,48)" height="41" opacity="0.97" width="41" x="80" y="40"/><rect fill="rgb(243,223,48)" height="41" opacity="0.95" width="41" x="120" y="40"/><rect fill="rgb(48,183,243)" height="41" opacity="0.93" width="41" x="160" y="40"/><rect fill="rgb(243,134,48)" height="41" opacity="0.89" width="41" x="200" y="40"/><rect fill="rgb(243,134,48)" height="41" opacity="0.85" width="41" x="240" y="40"/><rect fill="rgb(243,134,48)" height="41" opacity="0.8" width="41" x="280" y="40"/><rect fill="rgb(48,183,243)" height="41" opacity="0.75" width="41" x="320" y="40"/><rect fill="rgb(99,243,48)" height="41" opacity="0.68" width="41" x="360" y="40"/><rect fill="rgb(243,48,81)" height="41" opacity="0.62" width="41" x="400" y="40"/><rect fill="rgb(48,183,243)" height="41" opacity="0.55" width="41" x="440" y="40"/><rect fill="rgb(243,134,48)" height="41" opacity="0.47" width="41" x="480" y="40"/><rect fill="rgb(99,243,48)" height="41" opacity="0.4" width="41" x="520" y="40"/><rect fill="rgb(48,183,243)" height="41" opacity="0.33" width="41" x="560" y="40"/><rect fill="rgb(243,223,48)" height="41" opacity="0.26" width="41" x="600" y="40"/><rect fill="rgb(243,223,48)" height="41" opacity="0.2" width="41" x="640" y="40"/><rect fill="rgb(243,134,48)" height="41" opacity="0.14" width="41" x="680" y="40"/><rect fill="rgb(99,243,48)" height="41" opacity="0.1" width="41" x="720" y="40"/><rect fill="rgb(99,243,48)" height="41" opacity="0.06" width="41" x="760" y="40"/><rect fill="rgb(99,243,48)" height="41" opacity="0.98" width="41" x="0" y="80"/><rect fill="rgb(243,48,81)" height="41" opacity="0.97" width="41" x="40" y="80"/><rect fill="rgb(99,243,48)" height="41" opacity="0.95" width="41" x="80" y="80"/><rect fill="rgb(99,243,48)" height="41" opacity="0.93" width="41" x="120" y="80"/><rect fill="rgb(243,223,48)" height="41" opacity="0.89" width="41" x="160" y="80"/><rect fill="rgb(99,243,48)" height="41" opacity="0.84" width="41" x="200" y="80"/><rect fill="rgb(48,183,243)" height="41" opacity="0.78" width="41" x="240" y="80"/><rect fill="rgb(243,134,48)" height="41" opacity="0.72" width="41" x="280" y="80"/><rect fill="rgb(243,223,48)" height="41" opacity="0.65" width="41" x="320" y="80"/><rect fill="rgb(243,134,48)" height="41" opacity="0.58" width="41" x="360" y="80"/><rect fill="rgb(243,223,48)" height="41" opacity="0.51" width="41" x="400" y="80"/><rect fill="rgb(243,48,81)" height="41" opacity="0.44" width="41" x="440" y="80"/><rect fill="rgb(48,183,243)" height="41" opacity="0.37" width="41" x="480" y="80"/><rect fill="rgb(99,243,48)" height="41" opacity="0.31" width="41" x="520" y="80"/><rect fill="rgb(99,243,48)" height="41" opacity="0.25" width="41" x="560" y="80"/><rect fill="rgb(243,223,48)" height="41" opacity="0.19" width="41" x="600" y="80"/><rect fill="rgb(99,243,48)" height="41" opacity="0.15" width="41" x="640" y="80"/><rect fill="rgb(99,243,48)" height="41" opacity="0.1" width="41" x="680" y="80"/><rect fill="rgb(243,223,48)" height="41" opacity="0.07" width="41" x="720" y="80"/><rect fill="rgb(243,134,48)" height="41" opacity="0.05" width="41" x="760" y="80"/><rect fill="rgb(48,183,243)" height="41" opacity="0.97" width="41" x="0" y="120"/><rect fill="rgb(243,223,48)" height="41" opacity="0.95" width="41" x="40" y="120"/><rect fill="rgb(243,223,48)" height="41" opacity="0.93" width="41" x="80" y="120"/><rect fill="rgb(243,134,48)" height="41" opacity="0.88" width="41" x="120" y="120"/><rect fill="rgb(243,223,48)" height="41" opacity="0.83" width="41" x="160" y="120"/><rect fill="rgb(243,134,48)" height="41" opacity="0.77" width="41" x="200" y="120"/><rect fill="rgb(99,243,48)" height="41" opacity="0.7" width="41" x="240" y="120"/><rect fill="rgb(48,183,243)" height="41" opacity="0.62" width="41" x="280" y="120"/><rect fill="rgb(243,223,48)" height="41" opacity="0.55" width="41" x="320" y="120"/><rect fill="rgb(243,134,48)" height="41" opacity="0.47" width="41" x="360" y="120"/><rect fill="rgb(48,183,243)" height="41" opacity="0.4" width="41" x="400" y="120"/><rect fill="rgb(243,134,48)" height="41" opacity="0.33" width="41" x="440" y="120"/><rect fill="rgb(243,223,48)" height="41" opacity="0.27" width="41" x="480" y="120"/><rect fill="rgb(243,48,81)" height="41" opacity="0.22" width="41" x="520" y="120"/><rect fill="rgb(243,223,48)" height="41" opacity="0.17" width="41" x="560" y="120"/><rect fill="rgb(243,48,81)" height="41" opacity="0.13" width="41" x="600" y="120"/><rect fill="rgb(243,48,81)" height="41" opacity="0.1" width="41" x="640" y="120"/><rect fill="rgb(243,223,48)" height="41" opacity="0.07" width="41" x="680" y="120"/><rect fill="rgb(99,243,48)" height="41" opacity="0.05" width="41" x="720" y="120"/><rect fill="rgb(99,243,48)" height="41" opacity="0.03" width="41" x="760" y="120"/><rect fill="rgb(48,183,243)" height="41" opacity="0.96" width="41" x="0" y="160"/><rect fill="rgb(243,134,48)" height="41" opacity="0.93" width="41" x="40" y="160"/><rect fill="rgb(243,48,81)" height="41" opacity="0.89" width="41" x="80" y="160"/><rect fill="rgb(243,134,48)" height="41" opacity="0.83" width="41" x="120" y="160"/><rect fill="rgb(48,183,243)" height="41" opacity="0.76" width="41" x="160" y="160"/><rect fill="rgb(243,48,81)" height="41" opacity="0.69" width="41" x="200" y="160"/><rect fill="rgb(99,243,48)" height="41" opacity="0.6" width="41" x="240" y="160"/><rect fill="rgb(243,48,81)" height="41" opacity="0.52" width="41" x="280" y="160"/><rect fill="rgb(99,243,48)" height="41" opacity="0.44" width="41" x="320" y="160"/><rect fill="rgb(243,134,48)" height="41" opacity="0.36" width="41" x="360" y="160"/><rect fill="rgb(48,183,243)" height="41" opacity="0.29" width="41" x="400" y="160"/><rect fill="rgb(243,134,48)" height="41" opacity="0.24" width="41" x="440" y="160"/><rect fill="rgb(243,134,48)" height="41" opacity="0.19" width="41" x="480" y="160"/><rect fill="rgb(243,134,48)" height="41" opacity="0.15" width="41" x="520" y="160"/><rect fill="rgb(243,134,48)" height="41" opacity="0.11" width="41" x="560" y="160"/><rect fill="rgb(99,243,48)" height="41" opacity="0.08" width="41" x="600" y="160"/><rect fill="rgb(243,134,48)" height="41" opacity="0.06" width="41" x="640" y="160"/><rect fill="rgb(48,183,243)" height="41" opacity="0.04" width="41" x="680" y="160"/><rect fill="rgb(243,223,48)" height="41" opacity="0.03" width="41" x="720" y="160"/><rect fill="rgb(48,183,243)" height="41" opacity="0.02" width="41" x="760" y="160"/><rect fill="rgb(243,223,48)" height="41" opacity="0.93" width="41" x="0" y="200"/><rect fill="rgb(243,134,48)" height="41" opacity="0.89" width="41" x="40" y="200"/><rect fill="rgb(243,48,81)" height="41" opacity="0.84" width="41" x="80" y="200"/><rect fill="rgb(243,48,81)" height="41" opacity="0.77" width="41" x="120" y="200"/><rect fill="rgb(243,134,48)" height="41" opacity="0.69" width="41" x="160" y="200"/><rect fill="rgb(243,134,48)" height="41" opacity="0.6" width="41" x="200" y="200"/><rect fill="rgb(243,48,81)" height="41" opacity="0.51" width="41" x="240" y="200"/><rect fill="rgb(99,243,48)" height="41" opacity="0.42" width="41" x="280" y="200"/><rect fill="rgb(243,48,81)" height="41" opacity="0.34" width="41" x="320" y="200"/><rect fill="rgb(243,223,48)" height="41" opacity="0.27" width="41" x="360" y="200"/><rect fill="rgb(48,183,243)" height="41" opacity="0.21" width="41" x="400" y="200"/><rect fill="rgb(243,48,81)" height="41" opacity="0.16" width="41" x="440" y="200"/><rect fill="rgb(48,183,243)" height="41" opacity="0.12" width="41" x="480" y="200"/><rect fill="rgb(99,243,48)" height="41" opacity="0.09" width="41" x="520" y="200"/><rect fill="rgb(243,134,48)" height="41" opacity="0.07" width="41" x="560" y="200"/><rect fill="rgb(243,134,48)" height="41" opacity="0.05" width="41" x="600" y="200"/><rect fill="rgb(48,183,243)" height="41" opacity="0.04" width="41" x="640" y="200"/><rect fill="rgb(99,243,48)" height="41" opacity="0.02" width="41" x="680" y="200"/><rect fill="rgb(243,223,48)" height="41" opacity="0.02" width="41" x="720" y="200"/><rect fill="rgb(99,243,48)" height="41" opacity="0.01" width="41" x="760" y="200"/><rect fill="rgb(48,183,243)" height="41" opacity="0.91" width="41" x="0" y="240"/><rect fill="rgb(48,183,243)" height="41" opacity="0.85" width="41" x="40" y="240"/><rect fill="rgb(243,223,48)" height="41" opacity="0.78" width="41" x="80" y="240"/><rect fill="rgb(48,183,243)" height="41" opacity="0.7" width="41" x="120" y="240"/><rect fill="rgb(99,243,48)" height="41" opacity="0.6" width="41" x="160" y="240"/><rect fill="rgb(99,243,48)" height="41" opacity="0.51" width="41" x="200" y="240"/><rect fill="rgb(243,134,48)" height="41" opacity="0.41" width="41" x="240" y="240"/><rect fill="rgb(243,223,48)" height="41" opacity="0.33" width="41" x="280" y="240"/><rect fill="rgb(243,223,48)" height="41" opacity="0.25" width="41" x="320" y="240"/><rect fill="rgb(243,134,48)" height="41" opacity="0.19" width="41" x="360" y="240"/><rect fill="rgb(99,243,48)" height="41" opacity="0.14" width="41" x="400" y="240"/><rect fill="rgb(243,223,48)" height="41" opacity="0.1" width="41" x="440" y="240"/><rect fill="rgb(243,223,48)" height="41" opacity="0.07" width="41" x="480" y="240"/><rect fill="rgb(243,223,48)" height="41" opacity="0.05" width="41" x="520" y="240"/><rect fill="rgb(48,183,243)" height="41" opacity="0.04" width="41" x="560" y="240"/><rect fill="rgb(99,243,48)" height="41" opacity="0.03" width="41" x="600" y="240"/><rect fill="rgb(243,48,81)" height="41" opacity="0.02" width="41" x="640" y="240"/><rect fill="rgb(243,48,81)" height="41" opacity="0.01" width="41" x="680" y="240"/><rect fill="rgb(243,134,48)" height="41" opacity="0.01" width="41" x="720" y="240"/><rect fill="rgb(243,223,48)" height="41" opacity="0" width="41" x="760" y="240"/><rect fill="rgb(243,223,48)" height="41" opacity="0.87" width="41" x="0" y="280"/><rect fill="rgb(243,48,81)" height="41" opacity="0.8" width="41" x="40" y="280"/><rect fill="rgb(48,183,243)" height="41" opacity="0.72" width="41" x="80" y="280"/><rect fill="rgb(99,243,48)" height="41" opacity="0.62" width="41" x="120" y="280"/><rect fill="rgb(243,134,48)" height="41" opacity="0.52" width="41" x="160" y="280"/><rect fill="rgb(243,223,48)" height="41" opacity="0.42" width="41" x="200" y="280"/><rect fill="rgb(99,243,48)" height="41" opacity="0.33" width="41" x="240" y="280"/><rect fill="rgb(243,223,48)" height="41" opacity="0.25" width="41" x="280" y="280"/><rect fill="rgb(243,134,48)" height="41" opacity="0.18" width="41" x="320" y="280"/><rect fill="rgb(99,243,48)" height="41" opacity="0.13" width="41" x="360" y="280"/><rect fill="rgb(243,134,48)" height="41" opacity="0.09" width="41" x="400" y="280"/><rect fill="rgb(99,243,48)" height="41" opacity="0.06" width="41" x="440" y="280"/><rect fill="rgb(48,183,243)" height="41" opacity="0.04" width="41" x="480" y="280"/><rect fill="rgb(243,134,48)" height="41" opacity="0.03" width="41" x="520" y="280"/><rect fill="rgb(99,243,48)" height="41" opacity="0.02" width="41" x="560" y="280"/><rect fill="rgb(48,183,243)" height="41" opacity="0.01" width="41" x="600" y="280"/><rect fill="rgb(48,183,243)" height="41" opacity="0.01" width="41" x="640" y="280"/><rect fill="rgb(48,183,243)" height="41" opacity="0" width="41" x="680" y="280"/><rect fill="rgb(99,243,48)" height="41" opacity="0" width="41" x="720" y="280"/><rect fill="rgb(243,223,48)" height="41" opacity="0" width="41" x="760" y="280"/><rect fill="rgb(243,134,48)" height="41" opacity="0.82" width="41" x="0" y="320"/><rect fill="rgb(243,134,48)" height="41" opacity="0.75" width="41" x="40" y="320"/><rect fill="rgb(243,48,81)" height="41" opacity="0.65" width="41" x="80" y="320"/><rect fill="rgb(243,223,48)" height="41" opacity="0.55" width="41" x="120" y="320"/><rect fill="rgb(243,223,48)" height="41" opacity="0.44" width="41" x="160" y="320"/><rect fill="rgb(99,243,48)" height="41" opacity="0.34" width="41" x="200" y="320"/><rect fill="rgb(48,183,243)" height="41" opacity="0.25" width="41" x="240" y="320"/><rect fill="rgb(48,183,243)" height="41" opacity="0.18" width="41" x="280" y="320"/><rect fill="rgb(243,223,48)" height="41" opacity="0.12" width="41" x="320" y="320"/><rect fill="rgb(48,183,243)" height="41" opacity="0.08" width="41" x="360" y="320"/><rect fill="rgb(243,223,48)" height="41" opacity="0.05" width="41" x="400" y="320"/><rect fill="rgb(243,223,48)" height="41" opacity="0.04" width="41" x="440" y="320"/><rect fill="rgb(243,134,48)" height="41" opacity="0.02" width="41" x="480" y="320"/><rect fill="rgb(243,134,48)" height="41" opacity="0.01" width="41" x="520" y="320"/><rect fill="rgb(99,243,48)" height="41" opacity="0.01" width="41" x="560" y="320"/><rect fill="rgb(243,48,81)" height="41" opacity="0" width="41" x="600" y="320"/><rect fill="rgb(99,243,48)" height="41" opacity="0" width="41" x="640" y="320"/><rect fill="rgb(48,183,243)" height="41" opacity="0" width="41" x="680" y="320"/><rect fill="rgb(48,183,243)" height="41" opacity="0.77" width="41" x="0" y="360"/><rect fill="rgb(243,48,81)" height="41" opacity="0.68" width="41" x="40" y="360"/><rect fill="rgb(48,183,243)" height="41" opacity="0.58" width="41" x="80" y="360"/><rect fill="rgb(243,134,48)" height="41" opacity="0.47" width="41" x="120" y="360"/><rect fill="rgb(243,134,48)" height="41" opacity="0.36" width="41" x="160" y="360"/><rect fill="rgb(99,243,48)" height="41" opacity="0.27" width="41" x="200" y="360"/><rect fill="rgb(243,48,81)" height="41" opacity="0.19" width="41" x="240" y="360"/><rect fill="rgb(243,223,48)" height="41" opacity="0.13" width="41" x="280" y="360"/><rect fill="rgb(243,223,48)" height="41" opacity="0.08" width="41" x="320" y="360"/><rect fill="rgb(243,48,81)" height="41" opacity="0.05" width="41" x="360" y="360"/><rect fill="rgb(48,183,243)" height="41" opacity="0.03" width="41" x="400" y="360"/><rect fill="rgb(48,183,243)" height="41" opacity="0.02" width="41" x="440" y="360"/><rect fill="rgb(243,223,48)" height="41" opacity="0.01" width="41" x="480" y="360"/><rect fill="rgb(243,48,81)" height="41" opacity="0.01" width="41" x="520" y="360"/><rect fill="rgb(243,134,48)" height="41" opacity="0" width="41" x="560" y="360"/><rect fill="rgb(243,223,48)" height="41" opacity="0" width="41" x="600" y="360"/><rect fill="rgb(243,134,48)" height="41" opacity="0.72" width="41" x="0" y="400"/><rect fill="rgb(243,134,48)" height="41" opacity="0.62" width="41" x="40" y="400"/><rect fill="rgb(243,223,48)" height="41" opacity="0.51" width="41" x="80" y="400"/><rect fill="rgb(243,48,81)" height="41" opacity="0.4" width="41" x="120" y="400"/><rect fill="rgb(99,243,48)" height="41" opacity="0.3" width="41" x="160" y="400"/><rect fill="rgb(48,183,243)" height="41" opacity="0.21" width="41" x="200" y="400"/><rect fill="rgb(48,183,243)" height="41" opacity="0.14" width="41" x="240" y="400"/><rect fill="rgb(243,134,48)" height="41" opacity="0.09" width="41" x="280" y="400"/><rect fill="rgb(243,48,81)" height="41" opacity="0.05" width="41" x="320" y="400"/><rect fill="rgb(48,183,243)" height="41" opacity="0.03" width="41" x="360" y="400"/><rect fill="rgb(243,134,48)" height="41" opacity="0.02" width="41" x="400" y="400"/><rect fill="rgb(243,134,48)" height="41" opacity="0.01" width="41" x="440" y="400"/><rect fill="rgb(99,243,48)" height="41" opacity="0" width="41" x="480" y="400"/><rect fill="rgb(243,48,81)" height="41" opacity="0" width="41" x="520" y="400"/><rect fill="rgb(99,243,48)" height="41" opacity="0.65" width="41" x="0" y="440"/><rect fill="rgb(243,223,48)" height="41" opacity="0.55" width="41" x="40" y="440"/><rect fill="rgb(48,183,243)" height="41" opacity="0.44" width="41" x="80" y="440"/><rect fill="rgb(243,223,48)" height="41" opacity="0.33" width="41" x="120" y="440"/><rect fill="rgb(243,48,81)" height="41" opacity="0.24" width="41" x="160" y="440"/><rect fill="rgb(48,183,243)" height="41" opacity="0.16" width="41" x="200" y="440"/><rect fill="rgb(48,183,243)" height="41" opacity="0.1" width="41" x="240" y="440"/><rect fill="rgb(99,243,48)" height="41" opacity="0.06" width="41" x="280" y="440"/><rect fill="rgb(243,134,48)" height="41" opacity="0.04" width="41" x="320" y="440"/><rect fill="rgb(243,223,48)" height="41" opacity="0.02" width="41" x="360" y="440"/><rect fill="rgb(243,134,48)" height="41" opacity="0.01" width="41" x="400" y="440"/><rect fill="rgb(99,243,48)" height="41" opacity="0" width="41" x="440" y="440"/><rect fill="rgb(99,243,48)" height="41" opacity="0.58" width="41" x="0" y="480"/><rect fill="rgb(48,183,243)" height="41" opacity="0.47" width="41" x="40" y="480"/><rect fill="rgb(99,243,48)" height="41" opacity="0.37" width="41" x="80" y="480"/><rect fill="rgb(243,134,48)" height="41" opacity="0.27" width="41" x="120" y="480"/><rect fill="rgb(48,183,243)" height="41" opacity="0.19" width="41" x="160" y="480"/><rect fill="rgb(48,183,243)" height="41" opacity="0.12" width="41" x="200" y="480"/><rect fill="rgb(243,223,48)" height="41" opacity="0.07" width="41" x="240" y="480"/><rect fill="rgb(243,134,48)" height="41" opacity="0.04" width="41" x="280" y="480"/><rect fill="rgb(243,223,48)" height="41" opacity="0.02" width="41" x="320" y="480"/><rect fill="rgb(243,48,81)" height="41" opacity="0.01" width="41" x="360" y="480"/><rect fill="rgb(243,223,48)" height="41" opacity="0" width="41" x="400" y="480"/><rect fill="rgb(99,243,48)" height="41" opacity="0" width="41" x="440" y="480"/><rect fill="rgb(243,48,81)" height="41" opacity="0.5" width="41" x="0" y="520"/><rect fill="rgb(48,183,243)" height="41" opacity="0.4" width="41" x="40" y="520"/><rect fill="rgb(48,183,243)" height="41" opacity="0.31" width="41" x="80" y="520"/><rect fill="rgb(99,243,48)" height="41" opacity="0.22" width="41" x="120" y="520"/><rect fill="rgb(243,134,48)" height="41" opacity="0.15" width="41" x="160" y="520"/><rect fill="rgb(243,134,48)" height="41" opacity="0.09" width="41" x="200" y="520"/><rect fill="rgb(99,243,48)" height="41" opacity="0.05" width="41" x="240" y="520"/><rect fill="rgb(243,223,48)" height="41" opacity="0.03" width="41" x="280" y="520"/><rect fill="rgb(243,134,48)" height="41" opacity="0.01" width="41" x="320" y="520"/><rect fill="rgb(243,223,48)" height="41" opacity="0.01" width="41" x="360" y="520"/><rect fill="rgb(243,48,81)" height="41" opacity="0" width="41" x="400" y="520"/><rect fill="rgb(99,243,48)" height="41" opacity="0.41" width="41" x="0" y="560"/><rect fill="rgb(243,48,81)" height="41" opacity="0.33" width="41" x="40" y="560"/><rect fill="rgb(243,134,48)" height="41" opacity="0.25" width="41" x="80" y="560"/><rect fill="rgb(99,243,48)" height="41" opacity="0.17" width="41" x="120" y="560"/><rect fill="rgb(48,183,243)" height="41" opacity="0.11" width="41" x="160" y="560"/><rect fill="rgb(48,183,243)" height="41" opacity="0.07" width="41" x="200" y="560"/><rect fill="rgb(243,223,48)" height="41" opacity="0.04" width="41" x="240" y="560"/><rect fill="rgb(99,243,48)" height="41" opacity="0.02" width="41" x="280" y="560"/><rect fill="rgb(243,134,48)" height="41" opacity="0.01" width="41" x="320" y="560"/><rect fill="rgb(243,48,81)" height="41" opacity="0" width="41" x="360" y="560"/><rect fill="rgb(48,183,243)" height="41" opacity="0.33" width="41" x="0" y="600"/><rect fill="rgb(48,183,243)" height="41" opacity="0.26" width="41" x="40" y="600"/><rect fill="rgb(243,223,48)" height="41" opacity="0.19" width="41" x="80" y="600"/><rect fill="rgb(243,134,48)" height="41" opacity="0.13" width="41" x="120" y="600"/><rect fill="rgb(243,223,48)" height="41" opacity="0.08" width="41" x="160" y="600"/><rect fill="rgb(243,223,48)" height="41" opacity="0.05" width="41" x="200" y="600"/><rect fill="rgb(99,243,48)" height="41" opacity="0.03" width="41" x="240" y="600"/><rect fill="rgb(99,243,48)" height="41" opacity="0.01" width="41" x="280" y="600"/><rect fill="rgb(243,134,48)" height="41" opacity="0" width="41" x="320" y="600"/><rect fill="rgb(99,243,48)" height="41" opacity="0" width="41" x="360" y="600"/><rect fill="rgb(243,48,81)" height="41" opacity="0.25" width="41" x="0" y="640"/><rect fill="rgb(99,243,48)" height="41" opacity="0.2" width="41" x="40" y="640"/><rect fill="rgb(243,134,48)" height="41" opacity="0.15" width="41" x="80" y="640"/><rect fill="rgb(243,48,81)" height="41" opacity="0.1" width="41" x="120" y="640"/><rect fill="rgb(99,243,48)" height="41" opacity="0.06" width="41" x="160" y="640"/><rect fill="rgb(243,134,48)" height="41" opacity="0.04" width="41" x="200" y="640"/><rect fill="rgb(243,134,48)" height="41" opacity="0.02" width="41" x="240" y="640"/><rect fill="rgb(99,243,48)" height="41" opacity="0.01" width="41" x="280" y="640"/><rect fill="rgb(243,134,48)" height="41" opacity="0" width="41" x="320" y="640"/><rect fill="rgb(243,223,48)" height="41" opacity="0.18" width="41" x="0" y="680"/><rect fill="rgb(99,243,48)" height="41" opacity="0.14" width="41" x="40" y="680"/><rect fill="rgb(243,134,48)" height="41" opacity="0.1" width="41" x="80" y="680"/><rect fill="rgb(48,183,243)" height="41" opacity="0.07" width="41" x="120" y="680"/><rect fill="rgb(243,223,48)" height="41" opacity="0.04" width="41" x="160" y="680"/><rect fill="rgb(48,183,243)" height="41" opacity="0.02" width="41" x="200" y="680"/><rect fill="rgb(243,48,81)" height="41" opacity="0.01" width="41" x="240" y="680"/><rect fill="rgb(243,48,81)" height="41" opacity="0" width="41" x="280" y="680"/><rect fill="rgb(243,48,81)" height="41" opacity="0" width="41" x="320" y="680"/><rect fill="rgb(243,48,81)" height="41" opacity="0.13" width="41" x="0" y="720"/><rect fill="rgb(48,183,243)" height="41" opacity="0.1" width="41" x="40" y="720"/><rect fill="rgb(99,243,48)" height="41" opacity="0.07" width="41" x="80" y="720"/><rect fill="rgb(243,223,48)" height="41" opacity="0.05" width="41" x="120" y="720"/><rect fill="rgb(99,243,48)" height="41" opacity="0.03" width="41" x="160" y="720"/><rect fill="rgb(48,183,243)" height="41" opacity="0.02" width="41" x="200" y="720"/><rect fill="rgb(243,134,48)" height="41" opacity="0.01" width="41" x="240" y="720"/><rect fill="rgb(99,243,48)" height="41" opacity="0" width="41" x="280" y="720"/><rect fill="rgb(99,243,48)" height="41" opacity="0.08" width="41" x="0" y="760"/><rect fill="rgb(99,243,48)" height="41" opacity="0.06" width="41" x="40" y="760"/><rect fill="rgb(48,183,243)" height="41" opacity="0.04" width="41" x="80" y="760"/><rect fill="rgb(48,183,243)" height="41" opacity="0.03" width="41" x="120" y="760"/><rect fill="rgb(243,134,48)" height="41" opacity="0.02" width="41" x="160" y="760"/><rect fill="rgb(243,134,48)" height="41" opacity="0.01" width="41" x="200" y="760"/><rect fill="rgb(99,243,48)" height="41" opacity="0" width="41" x="240" y="760"/><rect fill="rgb(48,183,243)" height="41" opacity="0" width="41" x="280" y="760"/></svg>