<?xml version="1.0" standalone="no"?>
<!DOCTYPE svg PUBLIC "-//W3C//DTD SVG 20010904//EN"
 "http://www.w3.org/TR/2001/REC-SVG-20010904/DTD/svg10.dtd">
<svg version="1.0" xmlns="http://www.w3.org/2000/svg"
 width="700.000000pt" height="700.000000pt" viewBox="0 0 700.000000 700.000000"
 preserveAspectRatio="xMidYMid meet">
<metadata>
Created by potrace 1.11, written by Peter Selinger 2001-2013
</metadata>
<g transform="translate(0.000000,700.000000) scale(0.100000,-0.100000)"
fill="#000000" stroke="none">
<path d="M0 3500 l0 -3500 3500 0 3500 0 0 3500 0 3500 -350 0 -350 0 0 -3150
0 -3150 -350 0 -350 0 0 3150 0 3150 -350 0 -350 0 0 -3150 0 -3150 -2100 0
-2100 0 0 3150 0 3150 -350 0 -350 0 0 -3500z"/>
<path d="M1400 4200 l0 -2800 1400 0 1400 0 0 2100 0 2100 -700 0 -700 0 0
-350 0 -350 350 0 350 0 0 -1400 0 -1400 -700 0 -700 0 0 2100 0 2100 1050 0
1050 0 0 350 0 350 -1400 0 -1400 0 0 -2800z"/>
</g>
</svg>
